<?xml version="1.0" encoding="utf-8"?>
<!-- Svg Vector Icons : http://www.onlinewebfonts.com/icon -->
<!DOCTYPE svg PUBLIC "-//W3C//DTD SVG 1.1//EN" "http://www.w3.org/Graphics/SVG/1.1/DTD/svg11.dtd">
<svg version="1.1" xmlns="http://www.w3.org/2000/svg" xmlns:xlink="http://www.w3.org/1999/xlink" x="0px" y="0px" viewBox="0 0 1000 1000" enable-background="new 0 0 1000 1000" xml:space="preserve">
<metadata> Svg Vector Icons : http://www.onlinewebfonts.com/icon </metadata>
<g><g transform="translate(0.000000,511.000000) scale(0.100000,-0.100000)"><path d="M1216.1,4281.1C183.9,3195.2-164.7,1624.9,306.4,188.5c84.3-256.6,247-610.9,379.2-825.4c109.2-176.2,383-545.8,459.6-616.7l55.5-53.6l139.8,141.7l139.8,141.7l-124.5,149.4c-180,220.2-325.6,444.3-463.5,718.2c-689.4,1377-438.6,3029.7,630.1,4167.3l162.8,172.4l-137.9,136c-76.6,76.6-143.6,137.9-151.3,137.9C1390.4,4457.3,1310,4376.9,1216.1,4281.1z"/><path d="M8453.3,4319.4l-137.9-139.8l157-162.8C9761.3,2666.7,9836,594.5,8650.6-864.8l-130.2-159l139.8-143.6l141.7-141.7l84.3,91.9c46,49.8,141.7,170.4,212.6,264.3c1179.7,1591.5,1043.7,3805.3-321.7,5239.7c-88.1,93.8-166.6,170.4-174.3,170.4C8595.1,4457.3,8528,4394.1,8453.3,4319.4z"/><path d="M2135.4,3469.1c-398.3-413.7-660.7-923.1-768-1484.2c-49.8-271.9-46-806.3,9.6-1062.9c103.4-482.6,294.9-886.7,591.8-1252.5l91.9-114.9l137.9,137.9c76.6,76.6,139.8,145.5,139.8,151.3c0,7.7-53.6,86.2-120.6,174.3c-358.1,476.9-534.3,1105-473,1691c59.4,557.3,273.9,1032.2,639.6,1421l170.4,180l-145.5,147.5l-145.6,145.6L2135.4,3469.1z"/><path d="M7585.8,3451.9l-141.7-141.7l153.2-159c442.4-461.5,666.5-1030.3,664.5-1691C8259.9,923.9,8099,437.5,7783,18.1c-67-88.1-120.6-166.6-120.6-174.3c0-5.7,63.2-74.7,139.8-151.3L7942-445.4l113,145.5c285.4,362,469.2,754.6,568.8,1221.9c55.5,260.5,61.3,792.9,9.6,1064.8c-93.8,503.7-337.1,997.8-683.7,1392.3C7735.2,3622.3,7752.4,3618.5,7585.8,3451.9z"/><path d="M3016.3,2615c-147.5-153.2-222.2-266.2-317.9-469.2c-195.3-417.5-195.3-921.2,3.8-1357.8c53.6-120.6,204.9-352.4,227.9-352.4c7.7,0,74.7,63.2,151.3,139.8l137.9,137.9l-49.8,74.7c-329.4,482.6-268.1,1114.6,149.4,1557l99.6,103.4L3274.9,2592l-143.6,143.6L3016.3,2615z"/><path d="M6724,2590.1l-141.7-141.7l95.8-101.5c427.1-452,482.6-1062.9,143.6-1578l-38.3-57.5l141.7-141.7L7068.7,426l47.9,57.5c139.8,174.3,273.9,488.3,314.1,737.3c82.3,503.7-103.4,1062.9-471.1,1421l-93.8,91.9L6724,2590.1z"/><path d="M4791.6,2262.6c-153.2-40.2-281.5-118.7-384.9-231.7c-272-298.8-296.8-723.9-57.5-1041.8c88.1-118.7,243.2-237.5,348.5-270l78.5-23l-13.4-327.5c-26.8-710.5-164.7-4504.3-164.7-4552.2v-53.6h402.2h402.2v91.9c0,49.8-38.3,1128-86.2,2397.7c-47.9,1269.7-86.2,2338.4-86.2,2376.7c0,61.3,7.6,72.8,53.6,84.3c151.3,36.4,358.1,222.2,446.2,402.2c151.3,306.4,99.6,658.8-136,915.4C5394.9,2249.2,5080.8,2341.1,4791.6,2262.6z M5182.3,2030.9c67-36.4,245.1-197.3,216.4-197.3c-5.7,0-47.9,13.4-91.9,28.7c-136,47.9-283.4,38.3-417.5-30.6c-65.1-30.6-139.8-86.2-168.5-118.7c-120.6-143.6-166.6-352.4-114.9-520.9c15.3-51.7,26.8-97.7,23-99.6c-17.2-19.2-124.5,97.7-174.3,189.6c-49.8,88.1-57.5,120.6-57.5,254.7c0,128.3,9.6,168.5,51.7,250.9c61.3,116.8,180,224.1,291.1,264.3C4851,2094.1,5082.7,2082.6,5182.3,2030.9z"/></g></g>
</svg>