<?xml version="1.0" standalone="no"?>
<!DOCTYPE svg PUBLIC "-//W3C//DTD SVG 20010904//EN"
 "http://www.w3.org/TR/2001/REC-SVG-20010904/DTD/svg10.dtd">
<svg version="1.0" xmlns="http://www.w3.org/2000/svg"
width="35" height="35" viewBox="0 0 1260.000000 1280.000000"
 preserveAspectRatio="xMidYMid meet">
<metadata>
Created by potrace 1.15, written by Peter Selinger 2001-2017
</metadata>
<g transform="translate(0.000000,1280.000000) scale(0.100000,-0.100000)"
fill="#8bc34a" stroke="none">
<path d="M6020 12794 c-1096 -66 -2143 -427 -3090 -1065 -187 -127 -446 -322
-443 -336 1 -6 -8 -19 -20 -29 l-22 -19 20 24 c11 13 15 22 8 20 -14 -5 -213
-174 -293 -249 -30 -29 -5 -10 55 42 61 52 130 110 155 130 l44 36 34 -86 c18
-48 45 -112 59 -142 41 -89 132 -273 148 -300 94 -161 144 -244 189 -312 l55
-81 -123 -121 c-67 -67 -84 -85 -37 -40 748 706 1694 1208 2626 1393 325 65
588 91 915 91 327 0 590 -26 915 -91 932 -185 1878 -687 2626 -1393 47 -45 30
-27 -37 40 l-123 121 55 81 c45 68 95 151 189 312 46 78 155 312 205 437 l36
91 45 -36 c24 -20 94 -78 154 -130 61 -52 85 -71 55 -42 -80 75 -279 244 -293
249 -7 2 -3 -7 8 -20 l20 -24 -22 19 c-12 10 -21 23 -20 29 3 14 -256 209
-443 336 -877 591 -1842 946 -2850 1046 -148 15 -664 27 -800 19z"/>
<path d="M2029 11003 c-13 -16 -12 -17 4 -4 16 13 21 21 13 21 -2 0 -10 -8
-17 -17z"/>
<path d="M10550 11016 c0 -2 8 -10 18 -17 15 -13 16 -12 3 4 -13 16 -21 21
-21 13z"/>
<path d="M2564 10078 l-19 -23 23 19 c21 18 27 26 19 26 -2 0 -12 -10 -23 -22z"/>
<path d="M10025 10080 c10 -11 20 -20 23 -20 3 0 -3 9 -13 20 -10 11 -20 20
-23 20 -3 0 3 -9 13 -20z"/>
<path d="M6140 9969 c-598 -30 -1179 -231 -1715 -593 -127 -86 -308 -225 -320
-248 -5 -7 5 -1 21 13 40 37 190 149 198 149 4 0 -5 -10 -19 -22 -25 -22 -45
-82 -76 -233 -38 -181 -51 -501 -28 -658 14 -98 48 -277 58 -307 5 -14 19 -59
32 -100 12 -41 26 -79 30 -84 4 -5 -14 -41 -40 -80 -57 -85 -63 -96 -58 -96 2
0 21 26 42 58 147 222 411 502 626 662 332 248 683 404 1064 471 187 33 503
33 690 0 390 -69 748 -230 1090 -490 193 -146 463 -436 600 -643 21 -32 40
-58 42 -58 5 0 -1 11 -58 96 -26 39 -44 75 -40 80 4 5 18 43 30 84 13 41 27
86 32 100 10 30 44 209 58 307 14 92 14 382 1 476 -35 242 -71 384 -105 415
-15 12 -23 22 -19 22 8 0 158 -112 198 -149 16 -14 26 -20 21 -13 -4 8 -51 48
-104 90 -547 436 -1254 717 -1883 747 -62 3 -138 7 -168 9 -30 1 -120 -1 -200
-5z"/>
<path d="M4059 9093 l-24 -28 28 24 c25 23 32 31 24 31 -2 0 -14 -12 -28 -27z"/>
<path d="M8530 9095 c13 -14 26 -25 28 -25 3 0 -5 11 -18 25 -13 14 -26 25
-28 25 -3 0 5 -11 18 -25z"/>
<path d="M3969 9013 l-24 -28 28 24 c25 23 32 31 24 31 -2 0 -14 -12 -28 -27z"/>
<path d="M8630 9005 c19 -19 36 -35 39 -35 3 0 -10 16 -29 35 -19 19 -36 35
-39 35 -3 0 10 -16 29 -35z"/>
<path d="M6153 7340 c-76 -16 -183 -58 -261 -102 -106 -60 -271 -224 -331
-331 -75 -133 -103 -232 -109 -377 -4 -106 -1 -139 17 -210 54 -216 191 -406
382 -533 43 -28 79 -56 79 -62 0 -6 -72 -238 -159 -515 -87 -278 -245 -779
-351 -1115 -105 -335 -245 -779 -310 -985 -65 -206 -231 -735 -370 -1175 -138
-440 -264 -840 -281 -890 -16 -49 -26 -92 -21 -96 9 -8 343 -112 347 -107 1 1
50 152 107 333 l104 330 34 -3 c189 -14 2946 -294 2951 -300 3 -4 34 -86 69
-182 35 -96 66 -178 69 -182 4 -5 327 103 349 117 1 1 -150 420 -337 931 -694
1905 -1411 3874 -1411 3877 0 2 22 18 48 35 113 73 241 224 307 363 59 125 78
222 73 369 -4 106 -10 138 -35 212 -50 145 -105 230 -223 348 -118 118 -205
174 -348 223 -76 26 -104 30 -217 33 -71 2 -149 -1 -172 -6z m379 -2148 c91
-251 165 -458 164 -459 -1 -2 -143 39 -315 89 -252 74 -311 95 -308 107 3 9
53 172 113 363 73 231 114 349 124 351 54 16 45 34 222 -451z m-242 -732 c151
-44 281 -82 289 -85 8 -3 -43 -44 -125 -99 -77 -51 -274 -186 -439 -298 -165
-113 -301 -204 -302 -203 -2 1 17 66 42 144 25 79 77 244 115 367 94 298 83
275 117 264 15 -5 152 -45 303 -90z m825 -872 c107 -293 193 -533 192 -534 -1
-1 -132 34 -292 76 -159 43 -472 126 -695 184 -223 59 -413 110 -423 114 -14
6 102 89 500 360 285 194 519 348 521 342 2 -5 91 -249 197 -542z m-1310 -522
c1110 -293 1186 -313 1191 -319 3 -2 -31 -18 -73 -35 -43 -17 -285 -114 -538
-217 -930 -377 -1227 -496 -1230 -493 -1 2 14 57 35 123 21 66 75 237 120 380
157 502 201 635 208 635 4 0 133 -33 287 -74z m1862 -993 c93 -258 167 -469
163 -471 -6 -2 -2107 206 -2123 211 -4 1 203 87 460 192 258 104 659 267 893
362 234 95 428 173 431 173 3 0 82 -210 176 -467z"/>
</g>
</svg>
